<svg width="16" height="16" viewBox="0 0 16 16" fill="none" xmlns="http://www.w3.org/2000/svg">
<g id="gridicons:user">
<path id="Vector" d="M8 1.99998C8.79565 1.99998 9.55871 2.31605 10.1213 2.87866C10.6839 3.44127 11 4.20433 11 4.99998C11 5.79563 10.6839 6.55869 10.1213 7.1213C9.55871 7.68391 8.79565 7.99998 8 7.99998C7.20435 7.99998 6.44129 7.68391 5.87868 7.1213C5.31607 6.55869 5 5.79563 5 4.99998C5 4.20433 5.31607 3.44127 5.87868 2.87866C6.44129 2.31605 7.20435 1.99998 8 1.99998ZM8 14C8 14 14 14 14 12.5C14 10.7 11.075 8.74998 8 8.74998C4.925 8.74998 2 10.7 2 12.5C2 14 8 14 8 14Z" fill="white"/>
</g>
</svg>
